<?xml version="1.0" encoding="UTF-8" standalone="no"?>
<!-- Created with Inkscape (http://www.inkscape.org/) -->

<svg
   width="512"
   height="512"
   viewBox="0 0 135.46667 135.46667"
   version="1.1"
   id="svg5"
   inkscape:version="1.4.2 (f4327f4, 2025-05-13)"
   sodipodi:docname="app_icon_monochrome.svg"
   xml:space="preserve"
   xmlns:inkscape="http://www.inkscape.org/namespaces/inkscape"
   xmlns:sodipodi="http://sodipodi.sourceforge.net/DTD/sodipodi-0.dtd"
   xmlns="http://www.w3.org/2000/svg"
   xmlns:svg="http://www.w3.org/2000/svg"
   xmlns:rdf="http://www.w3.org/1999/02/22-rdf-syntax-ns#"
   xmlns:cc="http://creativecommons.org/ns#"
   xmlns:dc="http://purl.org/dc/elements/1.1/"><title
     id="title1">CaptureCap app icon</title><sodipodi:namedview
     id="namedview7"
     pagecolor="#aaccff"
     bordercolor="#666666"
     borderopacity="1.0"
     inkscape:pageshadow="2"
     inkscape:pageopacity="0.0"
     inkscape:pagecheckerboard="0"
     inkscape:document-units="mm"
     showgrid="false"
     units="px"
     width="2048px"
     inkscape:zoom="1.0819965"
     inkscape:cx="162.66226"
     inkscape:cy="140.01894"
     inkscape:window-width="1920"
     inkscape:window-height="1001"
     inkscape:window-x="-9"
     inkscape:window-y="-9"
     inkscape:window-maximized="1"
     inkscape:current-layer="svg5"
     inkscape:showpageshadow="2"
     inkscape:deskcolor="#d1d1d1" /><defs
     id="defs2" /><metadata
     id="metadata1"><rdf:RDF><cc:Work
         rdf:about=""><dc:title>CaptureCap app icon</dc:title><dc:creator><cc:Agent><dc:title>yepgoryo (Egor Yakovlev)</dc:title></cc:Agent></dc:creator><cc:license
           rdf:resource="http://creativecommons.org/publicdomain/zero/1.0/" /></cc:Work><cc:License
         rdf:about="http://creativecommons.org/publicdomain/zero/1.0/"><cc:permits
           rdf:resource="http://creativecommons.org/ns#Reproduction" /><cc:permits
           rdf:resource="http://creativecommons.org/ns#Distribution" /><cc:permits
           rdf:resource="http://creativecommons.org/ns#DerivativeWorks" /></cc:License></rdf:RDF></metadata><g
     id="g1"
     inkscape:label="capturecap"
     transform="matrix(1.0874668,0,0,1.0874668,-5.7761464,-5.7538533)"><path
       id="path1"
       style="fill:#ffffff;fill-opacity:1;stroke:none;stroke-width:1.64189;stroke-dasharray:none;stroke-opacity:1"
       inkscape:label="cap"
       d="m 78.518268,22.042604 c -1.583206,-0.11461 -3.124261,-0.158442 -4.623865,-0.136239 -36.637445,0.54246 -48.502735,40.599211 -44.68635,54.809901 l -20.9082431,24.955304 2.2759561,2.19339 c 24.84255,-11.889685 51.598743,5.09819 79.156553,11.17099 19.187381,-2.58288 18.759011,-16.664477 25.959701,-26.274045 0.66891,0.408924 1.16947,0.60052 1.31697,-0.119135 5.29271,-27.830968 0.80672,-57.55059 -28.253344,-64.982403 0.0053,-0.03153 0.0094,-0.06319 0.01238,-0.09495 0.14103,-1.461736 -2.073457,-2.871699 -4.946474,-3.149418 -2.095673,-0.201868 -4.606795,0.278594 -5.303289,1.626609 z m -4.277665,11.728929 c 9.549622,1.3e-5 17.291118,7.741508 17.291131,17.29113 -1.3e-5,9.549623 -7.741508,17.291118 -17.291131,17.291131 -9.549623,-1.3e-5 -17.291118,-7.741508 -17.291131,-17.291131 1.3e-5,-9.549622 7.741509,-17.291117 17.291131,-17.29113 z"
       transform="matrix(0.80572615,0,0,0.80572615,14.782416,11.233739)"
       sodipodi:nodetypes="csccccccccccccccc" /></g></svg>
